#N canvas 137 161 1091 405 10;
#X msg 171 82 32;
#N canvas 0 24 450 300 (subpatch) 0;
#X array tab1 64 float 0;
#X coords 0 1 63 -1 200 140 1;
#X restore 372 24 graph;
#X obj 245 45 tabwrite~ tab1;
#N canvas 0 24 450 300 (subpatch) 0;
#X array tab2 64 float 0;
#X coords 0 1 63 -1 200 140 1;
#X restore 374 189 graph;
#X obj 243 171 tabwrite~ tab2;
#X obj 13 197 dac~;
#X msg 37 240 \; pd dsp 1;
#X msg 37 278 \; pd dsp 0;
#X msg 136 83 16;
#X msg 101 83 8;
#X msg 70 83 7;
#X msg 35 83 4;
#X msg 208 83 64;
#X obj 17 5 osc~ 395;
#X floatatom 162 279 5 0 0 0 - - -;
#X text 15 318 median~ \; Constructor parameter or passive inlets is
the number of samples to be considered in median limited by the block
size \; Developed by flavio schiavoni to Alexandre Torres Porres;
#X obj 850 75 rfft~;
#X obj 850 108 *~;
#X obj 881 108 *~;
#X obj 850 138 sqrt~;
#X obj 850 164 biquad~ 0 0 0 0 1;
#X text 914 76 Fourier series;
#X text 919 129 magnitude;
#X text 917 114 calculate;
#X text 953 42 signal to analyze;
#X obj 850 188 /~ 4096;
#X obj 938 247 r metro;
#X obj 261 4 s metro;
#X obj 968 97 block~ 4096 1;
#X obj 853 286 tabwrite~ spectrum;
#N canvas 0 0 450 300 (subpatch) 0;
#X array spectrum 259 float 0;
#X coords 0 0.51 258 -0.008 259 130 1;
#X restore 583 197 graph;
#X obj 182 -2 tgl 15 0 empty empty empty 17 7 0 10 -262144 -1 -1 1
1;
#X obj 201 12 metro 64;
#X obj 17 118 median~ 64;
#X text 613 327 2;
#X text 644 327 4;
#X text 583 327 0;
#X text 621 342 -- partial number --;
#X text 676 327 6;
#X text 709 327 8;
#X text 737 327 10;
#X text 769 327 12;
#X text 801 327 14;
#X obj 161 198 bng 15 250 50 0 empty empty empty 17 7 0 10 -262144
-1 -1;
#X obj 162 231 for++ 0 64 1000;
#X connect 0 0 33 1;
#X connect 8 0 33 1;
#X connect 9 0 33 1;
#X connect 10 0 33 1;
#X connect 11 0 33 1;
#X connect 12 0 33 1;
#X connect 13 0 2 0;
#X connect 13 0 33 0;
#X connect 14 0 33 1;
#X connect 16 0 17 0;
#X connect 16 0 17 1;
#X connect 16 1 18 0;
#X connect 16 1 18 1;
#X connect 17 0 19 0;
#X connect 18 0 19 0;
#X connect 19 0 20 0;
#X connect 20 0 25 0;
#X connect 25 0 29 0;
#X connect 26 0 29 0;
#X connect 31 0 32 0;
#X connect 32 0 27 0;
#X connect 32 0 2 0;
#X connect 32 0 4 0;
#X connect 33 0 4 0;
#X connect 33 0 5 0;
#X connect 33 0 5 1;
#X connect 33 0 16 0;
#X connect 43 0 44 0;
#X connect 44 0 14 0;
